<svg width="61" height="61" viewBox="0 0 61 61" fill="none" xmlns="http://www.w3.org/2000/svg">
<path d="M43.5826 31.5585C43.1836 31.3108 42.7846 31.1457 42.3856 30.9806C38.8745 29.3295 35.0441 28.4214 30.9744 28.3389V15.1303H47.4928C47.812 15.1303 48.0514 14.9651 48.211 14.7175C48.3706 14.4698 48.3706 14.1396 48.211 13.8919L45.418 9.02126L48.211 4.15058C48.3706 3.90292 48.3706 3.57271 48.211 3.32504C48.0514 3.07738 47.812 2.91227 47.4928 2.91227H30.9744V2.16929C30.9744 1.67397 30.6552 1.34375 30.1764 1.34375C29.6976 1.34375 29.3784 1.67397 29.3784 2.16929V28.1738C13.1791 28.5865 0.171875 42.373 0.171875 59.214C0.171875 59.7094 0.491072 60.0396 0.969867 60.0396H59.3829C59.8617 60.0396 60.1809 59.7094 60.1809 59.214C60.1809 47.1612 53.3979 36.6768 43.5826 31.5585ZM44.4604 36.0989C44.4604 38.1628 42.7846 39.8964 40.7897 39.8964C38.7947 39.8964 37.1189 38.1628 37.1189 36.0989C37.1189 34.0351 38.7947 32.3015 40.7897 32.3015C41.1887 32.3015 41.5876 32.384 41.9866 32.5491C42.3058 32.7142 42.5452 32.7968 42.8644 32.9619C43.822 33.6223 44.4604 34.7781 44.4604 36.0989ZM46.1362 4.64591L43.822 8.69105C43.6624 8.93871 43.6624 9.26892 43.822 9.51659L46.1362 13.5617H30.9744V4.64591H46.1362ZM18.6853 33.4572C20.0419 33.4572 21.0793 34.613 21.0793 35.9338C21.0793 37.2547 19.9621 38.4105 18.6853 38.4105C17.4085 38.4105 16.2913 37.2547 16.2913 35.9338C16.2913 34.613 17.3287 33.4572 18.6853 33.4572ZM9.02958 44.0241C11.1842 44.0241 12.8599 45.8403 12.8599 47.9867C12.8599 50.1331 11.1044 51.9493 9.02958 51.9493C6.95481 51.9493 5.19922 50.1331 5.19922 47.9867C5.19922 45.8403 6.87501 44.0241 9.02958 44.0241ZM18.2065 55.0038C18.2065 53.2702 19.5631 51.7842 21.3187 51.7842C23.0742 51.7842 24.4308 53.1876 24.4308 55.0038C24.4308 56.7374 23.0742 58.2234 21.3187 58.2234C19.5631 58.2234 18.2065 56.7374 18.2065 55.0038ZM24.5106 58.4711C25.3884 57.563 25.947 56.3247 25.947 54.9212C25.947 52.2795 23.8722 50.0506 21.2389 50.0506C18.6055 50.0506 16.5307 52.197 16.5307 54.9212C16.5307 56.3247 17.0893 57.563 17.9671 58.4711H1.76786C1.84766 55.0038 2.48605 51.7842 3.68304 48.7297C4.00224 51.5365 6.31641 53.6004 9.10938 53.6004C12.1418 53.6004 14.5357 51.0412 14.5357 47.9867C14.5357 44.9322 12.062 42.373 9.10938 42.373C8.23159 42.373 7.3538 42.6207 6.63561 43.0335C8.86998 39.6488 11.7428 36.7594 15.0943 34.5304C14.7751 34.9432 14.6953 35.4385 14.6953 36.0164C14.6953 38.3279 16.5307 40.1441 18.6853 40.1441C20.9197 40.1441 22.6752 38.2453 22.6752 36.0164C22.6752 34.0351 21.3985 32.4666 19.6429 31.9712C22.6752 30.7329 25.947 29.99 29.2986 29.9074V32.6317C29.2986 33.127 29.6178 33.4572 30.0966 33.4572C30.5754 33.4572 30.8946 33.127 30.8946 32.6317V29.9074C33.5279 29.99 36.0815 30.4027 38.4755 31.2283C36.7199 32.1364 35.4431 33.9525 35.4431 36.1815C35.4431 39.1534 37.8371 41.6301 40.7099 41.6301C43.5826 41.6301 45.9766 39.1534 45.9766 36.1815C45.9766 35.6862 45.8968 35.2734 45.817 34.8606C49.4878 37.4198 52.5999 40.8045 54.7545 44.7671C54.0363 44.4369 53.2383 44.2718 52.3605 44.2718C49.1686 44.2718 46.615 46.9135 46.615 50.2157C46.615 53.5178 49.1686 56.1595 52.3605 56.1595C54.7545 56.1595 56.8293 54.591 57.7071 52.4446C58.1859 54.4259 58.4253 56.4898 58.5051 58.5536H24.5106V58.4711ZM56.6697 50.1331C56.6697 52.5272 54.8343 54.4259 52.5201 54.4259C50.206 54.4259 48.3706 52.5272 48.3706 50.1331C48.3706 47.739 50.206 45.8403 52.5201 45.8403C54.8343 45.8403 56.6697 47.739 56.6697 50.1331Z" fill="#00C041"/>
<path d="M26.8458 37.3633C23.9363 37.3633 21.5117 39.7887 21.5117 42.6993C21.5117 45.6098 23.9363 48.0352 26.8458 48.0352C29.7554 48.0352 32.18 45.6098 32.18 42.6993C32.18 39.7079 29.8362 37.3633 26.8458 37.3633ZM26.8458 46.3374C24.8253 46.3374 23.1281 44.6396 23.1281 42.6184C23.1281 40.5972 24.8253 38.8994 26.8458 38.8994C28.8664 38.8994 30.5636 40.5972 30.5636 42.6184C30.5636 44.6396 28.9472 46.3374 26.8458 46.3374Z" fill="#00C041"/>
<path d="M38.8431 45.3672C36.6035 45.3672 34.8438 47.2081 34.8438 49.3692C34.8438 51.6103 36.6834 53.3712 38.8431 53.3712C41.0827 53.3712 42.8424 51.5303 42.8424 49.3692C42.9224 47.2081 41.0827 45.3672 38.8431 45.3672ZM38.8431 51.8504C37.4833 51.8504 36.4435 50.7299 36.4435 49.4492C36.4435 48.1686 37.5633 47.048 38.8431 47.048C40.1229 47.048 41.2427 48.1686 41.2427 49.4492C41.2427 50.7299 40.2029 51.8504 38.8431 51.8504Z" fill="#00C041"/>
</svg>
