<svg width="61" height="61" viewBox="0 0 61 61" fill="none" xmlns="http://www.w3.org/2000/svg">
<path d="M56.2229 40.6843C55.8248 40.6843 55.4267 40.7651 55.0286 40.8459L47.3853 29.292C48.0222 28.4032 48.4203 27.2721 48.4203 26.1409C48.4203 24.929 48.0222 23.7978 47.3853 22.909L54.8694 9.09282C55.1879 9.17362 55.5859 9.25441 55.9044 9.25441C58.2133 9.25441 60.0445 7.39609 60.0445 5.05299C60.0445 2.70989 58.2133 0.851562 55.9044 0.851562C53.5955 0.851562 51.7643 2.70989 51.7643 5.05299C51.7643 6.42653 52.4012 7.63848 53.4363 8.44645L46.191 21.7779C45.3152 21.1315 44.2006 20.7275 43.0063 20.7275C41.3343 20.7275 39.8216 21.5355 38.8662 22.7475L38.7866 22.6667L20.7133 15.5566C21.0318 14.8294 21.2706 14.0214 21.2706 13.1327C21.2706 10.1432 18.8821 7.71928 15.9362 7.71928C12.9904 7.71928 10.6018 10.1432 10.6018 13.1327C10.6018 16.1221 12.9904 18.546 15.9362 18.546C17.449 18.546 18.8821 17.8997 19.8375 16.8493L38.1496 24.0402C37.9108 24.6866 37.7515 25.3329 37.7515 26.0601C37.7515 26.7065 37.8311 27.3529 38.07 27.9184L19.0413 31.7967C18.2451 29.7768 16.2547 28.3224 13.9458 28.3224C10.9203 28.3224 8.45214 30.8271 8.45214 33.8974C8.45214 35.7557 9.32794 37.4524 10.7611 38.422L5.1878 49.7335C4.86933 49.6527 4.63048 49.6527 4.31201 49.6527C2.00309 49.6527 0.171875 51.5111 0.171875 53.8542C0.171875 56.1973 2.00309 58.0556 4.31201 58.0556C6.62093 58.0556 8.45214 56.1973 8.45214 53.8542C8.45214 52.3998 7.73558 51.1071 6.62093 50.3799L12.1146 39.23C12.6719 39.3916 13.2292 39.5532 13.8662 39.5532C16.8916 39.5532 19.3598 37.0485 19.3598 33.9782C19.3598 33.8166 19.3598 33.655 19.3598 33.4934L38.7866 29.5344C39.742 30.8271 41.3343 31.6351 43.0063 31.6351C44.2006 31.6351 45.3152 31.2311 46.191 30.5039L53.5955 41.5731C52.6401 42.381 52.0031 43.5122 52.0031 44.8857C52.0031 45.5321 52.1624 46.0977 52.4012 46.6633L41.0955 52.4806C40.1401 51.0263 38.4681 50.0567 36.6369 50.0567C33.691 50.0567 31.3025 52.4806 31.3025 55.4701C31.3025 58.4596 33.691 60.8835 36.6369 60.8835C39.5827 60.8835 41.9713 58.4596 41.9713 55.4701C41.9713 54.9045 41.8917 54.4197 41.7324 53.935L53.277 47.956C53.9936 48.6832 55.0286 49.0872 56.0637 49.0872C58.3726 49.0872 60.2038 47.2288 60.2038 44.8857C60.2038 42.5426 58.5318 40.6843 56.2229 40.6843ZM55.984 2.46749C57.4172 2.46749 58.5318 3.59865 58.5318 5.05299C58.5318 6.50733 57.4172 7.63848 55.984 7.63848C54.5509 7.63848 53.4363 6.50733 53.4363 5.05299C53.4363 3.59865 54.5509 2.46749 55.984 2.46749ZM15.9362 17.0109C13.8662 17.0109 12.1942 15.3142 12.1942 13.2134C12.1942 11.1127 13.8662 9.41601 15.9362 9.41601C18.0063 9.41601 19.6783 11.1127 19.6783 13.2134C19.7579 15.3142 18.0063 17.0109 15.9362 17.0109ZM4.31201 56.4397C2.87888 56.4397 1.76423 55.3085 1.76423 53.8542C1.76423 52.3998 2.87888 51.2687 4.31201 51.2687C5.74513 51.2687 6.85978 52.3998 6.85978 53.8542C6.85978 55.3085 5.74513 56.4397 4.31201 56.4397ZM13.9458 37.8564C11.7961 37.8564 10.0445 36.0789 10.0445 33.8974C10.0445 31.7159 11.7961 29.9384 13.9458 29.9384C16.0955 29.9384 17.8471 31.7159 17.8471 33.8974C17.8471 36.0789 16.0955 37.8564 13.9458 37.8564ZM39.3439 26.1409C39.3439 24.0402 41.0159 22.3435 43.0859 22.3435C45.156 22.3435 46.828 24.0402 46.828 26.1409C46.828 28.2416 45.156 29.9384 43.0859 29.9384C41.0159 30.0192 39.3439 28.2416 39.3439 26.1409ZM36.7165 59.3483C34.6464 59.3483 32.9745 57.6516 32.9745 55.5509C32.9745 53.4502 34.6464 51.7535 36.7165 51.7535C38.7866 51.7535 40.4585 53.4502 40.4585 55.5509C40.5382 57.6516 38.7866 59.3483 36.7165 59.3483ZM56.2229 47.4712C54.7898 47.4712 53.6751 46.3401 53.6751 44.8857C53.6751 43.4314 54.7898 42.3002 56.2229 42.3002C57.656 42.3002 58.7707 43.4314 58.7707 44.8857C58.7707 46.3401 57.656 47.4712 56.2229 47.4712Z" fill="#00C041"/>
</svg>
