<svg width="61" height="61" viewBox="0 0 61 61" fill="none" xmlns="http://www.w3.org/2000/svg">
<path d="M13.4033 44.4006C13.5896 44.4006 13.776 44.3291 13.918 44.1869L15.4818 42.6202C15.7665 42.335 15.7665 41.8741 15.4818 41.5889C15.1972 41.3037 14.737 41.3037 14.4524 41.5889L12.8885 43.1556C12.6039 43.4408 12.6039 43.9017 12.8885 44.1869C13.0305 44.3291 13.2169 44.4006 13.4033 44.4006Z" fill="#00C041"/>
<path d="M12.1816 48.7334C11.8969 48.4482 11.4368 48.4482 11.1521 48.7334L3.23327 56.6661C2.94861 56.9513 2.94861 57.4122 3.23327 57.6974C3.37524 57.8396 3.56161 57.9111 3.74799 57.9111C3.93437 57.9111 4.12075 57.8396 4.26272 57.6974L12.1816 49.7648C12.4655 49.4803 12.4655 49.0186 12.1816 48.7334Z" fill="#00C041"/>
<path d="M6.30741 51.8085L12.1303 45.9757C12.4149 45.6905 12.4149 45.2295 12.1303 44.9444C11.8456 44.6592 11.3855 44.6592 11.1008 44.9444L5.27796 50.7771C4.9933 51.0623 4.9933 51.5233 5.27796 51.8085C5.41993 51.9507 5.60631 52.0222 5.79268 52.0222C5.97906 52.0222 6.16544 51.9507 6.30741 51.8085Z" fill="#00C041"/>
<path d="M13.0032 55.3897L11.4401 56.9564C11.1554 57.2415 11.1554 57.7032 11.4401 57.9877C11.582 58.1299 11.7684 58.2014 11.9548 58.2014C12.1412 58.2014 12.3275 58.1299 12.4695 57.9877L14.0326 56.421C14.3173 56.1358 14.3173 55.6741 14.0326 55.3897C13.7487 55.1045 13.2878 55.1045 13.0032 55.3897Z" fill="#00C041"/>
<path d="M21.6425 47.7764C21.3579 47.4912 20.8977 47.4912 20.6131 47.7764L14.7902 53.6099C14.5056 53.8951 14.5056 54.3561 14.7902 54.6412C14.9322 54.7835 15.1186 54.8549 15.3049 54.8549C15.4913 54.8549 15.6777 54.7835 15.8197 54.6412L21.6425 48.8077C21.9265 48.5233 21.9265 48.0616 21.6425 47.7764Z" fill="#00C041"/>
<path d="M55.9873 17.1525L37.0321 36.1417L37.0518 36.1614C37.3095 36.4196 37.3372 36.8288 37.1166 37.1183L29.7619 46.8051C29.6345 46.9729 29.4416 47.0772 29.2312 47.091C29.2152 47.0918 29.1984 47.0925 29.1824 47.0925C28.9902 47.0925 28.8046 47.0159 28.6677 46.8788L27.1723 45.3807L25.1032 47.4543C24.9664 47.5914 24.7814 47.668 24.5885 47.668C24.3956 47.668 24.2099 47.5914 24.0738 47.4543L21.3356 44.7111L10.9196 55.1462C10.7776 55.2884 10.5912 55.3599 10.4049 55.3599C10.2185 55.3599 10.0321 55.2884 9.89014 55.1462C9.60548 54.861 9.60548 54.4001 9.89014 54.1149L20.3062 43.6798L19.3393 42.7112C19.3328 42.7177 19.3313 42.7272 19.3241 42.7338L14.1077 47.9597C13.9657 48.1019 13.7793 48.1734 13.5929 48.1734C13.4066 48.1734 13.2202 48.1019 13.0782 47.9597C12.7936 47.6745 12.7936 47.2136 13.0782 46.9284L18.2946 41.7024C18.3012 41.6959 18.3106 41.6937 18.3172 41.6871L14.7993 38.1628L6.99911 45.9773C6.85714 46.1195 6.67076 46.191 6.48439 46.191C6.29801 46.191 6.11163 46.1195 5.96967 45.9773C5.68501 45.6921 5.68501 45.2311 5.96967 44.946L13.7699 37.1315L13.2741 36.6348C13.1372 36.4977 13.0608 36.3124 13.0608 36.1191C13.0608 35.9258 13.1372 35.7398 13.2741 35.6034L15.3432 33.5306L14.1171 32.3023C13.9686 32.1535 13.8914 31.9478 13.9053 31.7378C13.9191 31.5277 14.0232 31.3337 14.1907 31.2061L23.8597 23.8379C24.1495 23.6169 24.5579 23.6454 24.8149 23.9029L24.8914 23.9794L43.8378 4.99828C44.196 4.61098 49.7487 -1.19117 59.0145 1.45426C59.2569 1.52355 59.4469 1.71392 59.5154 1.95753C62.1116 11.1768 56.6069 16.5749 55.9975 17.1365C55.9931 17.1416 55.9917 17.1481 55.9873 17.1525ZM45.4053 5.52051L55.4646 15.5982C56.7496 14.176 60.0177 9.72242 58.2209 2.74962C51.4378 0.983086 46.8672 4.24775 45.4053 5.52051ZM26.1429 44.3493L16.3726 34.5612L14.8182 36.1184L24.5885 45.9065L26.1429 44.3493ZM35.5724 36.7427L24.2347 25.3842L15.7363 31.861L29.1074 45.2574L35.5724 36.7427ZM54.4424 16.6369L44.3605 6.53652L25.9208 25.0108L36.0027 35.1104L54.4424 16.6369Z" fill="#00C041"/>
<path d="M47.679 13.448C49.5341 15.3057 49.5341 18.3297 47.679 20.1874C46.7515 21.1166 45.5335 21.5812 44.3155 21.5812C43.0975 21.5812 41.8795 21.1166 40.952 20.1874C39.0969 18.3297 39.0969 15.3057 40.952 13.448C42.8063 11.5903 45.824 11.5903 47.679 13.448ZM46.6496 14.4793C45.3624 13.1905 43.2679 13.1898 41.9814 14.4793C40.6942 15.7688 40.6942 17.8665 41.9814 19.156C43.2686 20.4456 45.3631 20.4456 46.6496 19.156C47.936 17.8665 47.936 15.7688 46.6496 14.4793Z" fill="#00C041"/>
<path d="M42.7424 15.9751C43.027 16.2603 43.4872 16.2603 43.7718 15.9751C44.1009 15.6447 44.6375 15.6439 44.968 15.9751C45.11 16.1173 45.2963 16.1888 45.4827 16.1888C45.6691 16.1888 45.8555 16.1173 45.9974 15.9751C46.2821 15.6899 46.2821 15.2289 45.9974 14.9437C45.0998 14.0444 43.6393 14.0452 42.7424 14.9437C42.4577 15.2282 42.4577 15.6899 42.7424 15.9751Z" fill="#00C041"/>
<path d="M19.7789 58.1018C19.7672 58.0332 19.7177 57.9778 19.6515 57.9573L19.0072 57.7655L18.7997 57.1251C18.7786 57.0595 18.7218 57.0106 18.6526 57.0011C18.582 56.9939 18.5158 57.0216 18.4764 57.0785L18.0957 57.6328L17.4237 57.6321C17.3545 57.6321 17.2912 57.6714 17.2606 57.7334C17.23 57.7954 17.2373 57.8698 17.2788 57.9253L17.688 58.4599L17.4798 59.0995C17.4586 59.1659 17.4761 59.2381 17.5256 59.2863C17.5751 59.3344 17.6487 59.3504 17.7135 59.3278L18.3476 59.1039L18.8914 59.5C18.9227 59.5233 18.9606 59.535 18.9984 59.535C19.0276 59.535 19.0567 59.5284 19.0829 59.5138C19.1441 59.4817 19.1819 59.4175 19.1805 59.3475L19.1637 58.6743L19.7076 58.279C19.7622 58.2389 19.7898 58.1696 19.7789 58.1018Z" fill="#00C041"/>
<path d="M2.26978 32.7997L2.06155 33.4401C2.04044 33.5058 2.05792 33.578 2.10742 33.6268C2.15693 33.675 2.23046 33.6896 2.29453 33.6684L2.92865 33.4438L3.47177 33.8398C3.50307 33.8632 3.54093 33.8748 3.57878 33.8748C3.60791 33.8748 3.63703 33.8683 3.66324 33.8537C3.7244 33.8216 3.76225 33.7574 3.76079 33.6874L3.74405 33.0149L4.28789 32.6196C4.34395 32.5787 4.37235 32.5102 4.3607 32.4416C4.34905 32.3731 4.29954 32.3176 4.23329 32.2972L3.5897 32.1054L3.38222 31.465C3.3611 31.3993 3.30431 31.3512 3.23515 31.341C3.1638 31.3337 3.09828 31.3614 3.05897 31.4183L2.6782 31.9726H2.00623C1.93706 31.9726 1.87372 32.012 1.84315 32.074C1.81257 32.136 1.81984 32.2111 1.86207 32.2658L2.26978 32.7997Z" fill="#00C041"/>
<path d="M0.742307 48.8882C0.769972 48.9516 0.831852 48.9939 0.901015 48.9969L1.57227 49.0253L1.92901 49.5957C1.9625 49.6489 2.02074 49.681 2.08335 49.681C2.08917 49.681 2.09573 49.681 2.10155 49.6803C2.17071 49.6737 2.22969 49.6278 2.25371 49.5629L2.48814 48.9319L3.13973 48.7678C3.20671 48.7511 3.2584 48.6971 3.27296 48.6293C3.28825 48.5614 3.26277 48.4914 3.20817 48.4476L2.68179 48.029L2.72766 47.358C2.73203 47.2887 2.69709 47.2223 2.63739 47.188C2.57842 47.1545 2.5027 47.1559 2.44518 47.1939L1.88533 47.5666L1.26212 47.3157C1.19733 47.2901 1.12525 47.3033 1.07283 47.3492C1.02114 47.3952 1.00003 47.4674 1.01896 47.5337L1.19951 48.1822L0.768513 48.6985C0.724831 48.7511 0.714641 48.8247 0.742307 48.8882Z" fill="#00C041"/>
<path d="M7.60024 35.4698L8.27149 35.4983L8.62823 36.0686C8.66172 36.1219 8.71996 36.154 8.78257 36.154C8.7884 36.154 8.79495 36.154 8.80077 36.1532C8.86994 36.1467 8.92891 36.1007 8.95293 36.0358L9.18736 35.4049L9.83895 35.2408C9.90593 35.224 9.95762 35.17 9.97218 35.1022C9.98747 35.0344 9.96199 34.9643 9.90739 34.9206L9.38102 34.5019L9.42688 33.8309C9.43125 33.7616 9.39631 33.6952 9.33661 33.661C9.27764 33.6267 9.20265 33.6289 9.14441 33.6668L8.58454 34.0395L7.96135 33.7879C7.89655 33.7616 7.82375 33.7747 7.77206 33.8214C7.72037 33.8674 7.69925 33.9396 7.71818 34.006L7.89873 34.6551L7.46774 35.1715C7.42333 35.2247 7.41313 35.2984 7.4408 35.3619C7.46919 35.4246 7.53035 35.4669 7.60024 35.4698Z" fill="#00C041"/>
<path d="M6.35447 59.8101C6.38286 59.8735 6.44402 59.9159 6.51318 59.9188L7.18443 59.9472L7.5419 60.5176C7.57539 60.5708 7.63363 60.6029 7.69624 60.6029C7.70207 60.6029 7.70862 60.6029 7.71444 60.6022C7.7836 60.5956 7.84257 60.5497 7.8666 60.4848L8.10103 59.8539L8.75262 59.6897C8.8196 59.673 8.87129 59.619 8.88658 59.5512C8.90114 59.4833 8.87566 59.4133 8.82179 59.3695L8.29542 58.9509L8.34128 58.2799C8.34565 58.2106 8.3107 58.1442 8.251 58.1099C8.19203 58.0756 8.11704 58.0786 8.0588 58.1158L7.49821 58.4885L6.87501 58.2368C6.81095 58.2113 6.73815 58.2244 6.68573 58.2697C6.63404 58.3156 6.61292 58.3878 6.63185 58.4542L6.8124 59.1026L6.38141 59.619C6.337 59.673 6.3268 59.7466 6.35447 59.8101Z" fill="#00C041"/>
<path d="M22.838 55.3403L23.8522 54.0056L23.3294 52.4119C23.2428 52.1479 23.3134 51.8576 23.5114 51.6636C23.7095 51.4696 24.0007 51.4054 24.2613 51.4958L25.8419 52.0494L27.1924 51.0589C27.4159 50.8948 27.7129 50.8722 27.959 51.0006C28.2044 51.1289 28.3565 51.3857 28.35 51.6636L28.3128 53.3404L29.6706 54.3214C29.8956 54.484 30.0084 54.7598 29.9626 55.034C29.9167 55.3082 29.7194 55.5322 29.4544 55.6117L27.8513 56.0945L27.3387 57.6911C27.2535 57.9559 27.0264 58.1484 26.7527 58.19C26.717 58.1951 26.6813 58.198 26.6456 58.198C26.409 58.198 26.1848 58.0828 26.0472 57.8844L25.0935 56.5059L23.4197 56.511C23.419 56.511 23.4182 56.511 23.4175 56.511C23.1416 56.511 22.889 56.3542 22.7652 56.1062C22.6422 55.8582 22.6698 55.5606 22.838 55.3403ZM25.242 54.584L24.8896 55.0479L25.4713 55.0464C25.472 55.0464 25.4728 55.0464 25.4735 55.0464C25.7123 55.0464 25.9358 55.1638 26.0719 55.36L26.4032 55.8392L26.5816 55.2842C26.6551 55.0559 26.8356 54.8779 27.065 54.8086L27.6219 54.6409L27.1502 54.2995C26.9558 54.1595 26.8429 53.9319 26.848 53.692L26.8611 53.1099L26.3915 53.4542C26.1979 53.5957 25.9467 53.6329 25.721 53.5541L25.1721 53.3615L25.3541 53.9151C25.4291 54.1427 25.3876 54.3929 25.242 54.584Z" fill="#00C041"/>
<path d="M0.300106 41.7427C0.155227 41.5057 0.157413 41.2074 0.305205 40.9725L1.19996 39.5546L0.54036 38.0127C0.431154 37.7574 0.476295 37.4628 0.656848 37.252C0.836674 37.0412 1.12206 36.9515 1.38925 37.0193L3.01205 37.4336L4.27155 36.3293C4.48123 36.1462 4.77463 36.0974 5.03017 36.2046C5.28644 36.3111 5.45971 36.554 5.47792 36.8304L5.58566 38.5028L7.02353 39.362C7.2616 39.5043 7.39847 39.7698 7.37663 40.0462C7.35479 40.3226 7.17788 40.5633 6.92015 40.6662L5.36434 41.2869L4.99304 42.9221C4.93189 43.1927 4.72221 43.405 4.45211 43.4699C4.39605 43.4837 4.33926 43.4896 4.2832 43.4896C4.06989 43.4896 3.86313 43.3955 3.72334 43.2263L2.65385 41.936L0.985919 42.0877C0.708536 42.1096 0.444258 41.979 0.300106 41.7427ZM2.63492 40.009L2.32406 40.5013L2.90357 40.4488C2.92541 40.4474 2.94798 40.4459 2.96909 40.4459C3.18459 40.4459 3.3899 40.5414 3.52896 40.7092L3.90026 41.157L4.02912 40.5896C4.08226 40.3554 4.2468 40.1629 4.46958 40.0732L5.01051 39.8573L4.51035 39.559C4.30432 39.4364 4.17254 39.2191 4.15653 38.9799L4.11867 38.3985L3.68112 38.7822C3.50056 38.9405 3.25376 38.9988 3.02224 38.9405L2.45874 38.7968L2.68735 39.3321C2.78272 39.5531 2.76233 39.8062 2.63492 40.009Z" fill="#00C041"/>
</svg>
