<svg width="23" height="18" viewBox="0 0 23 18" fill="none" xmlns="http://www.w3.org/2000/svg">
<path d="M23 2.12968C22.1535 2.49108 21.2452 2.73618 20.2908 2.8456C21.2653 2.28339 22.0112 1.39164 22.3647 0.332323C21.4507 0.852967 20.4417 1.23102 19.3666 1.43596C18.5057 0.551131 17.2812 0 15.923 0C13.3173 0 11.2046 2.03554 11.2046 4.54465C11.2046 4.90051 11.2463 5.24808 11.3268 5.58044C7.40601 5.3907 3.92936 3.58089 1.60249 0.830807C1.19574 1.50103 0.964348 2.28198 0.964348 3.11561C0.964348 4.69282 1.79795 6.08446 3.06273 6.89865C2.28948 6.87374 1.56224 6.6688 0.925564 6.32815V6.38492C0.925564 8.58662 2.55252 10.4241 4.70978 10.8423C4.31454 10.9448 3.89775 11.0016 3.46658 11.0016C3.1619 11.0016 2.86726 10.9725 2.57837 10.9171C3.17912 12.7242 4.92107 14.0383 6.98495 14.0743C5.37092 15.2929 3.33579 16.0171 1.12535 16.0171C0.744495 16.0171 0.369354 15.9949 0 15.9548C2.08831 17.2467 4.56754 18 7.23216 18C15.9116 18 20.6559 11.0736 20.6559 5.06671L20.6401 4.47821C21.5671 3.84119 22.369 3.04084 23 2.12968Z" fill="white"/>
</svg>
