<svg width="328" height="256" viewBox="0 0 328 256" fill="none" xmlns="http://www.w3.org/2000/svg">
<path d="M190.082 57.375C209.034 57.385 227.981 57.4252 246.934 57.4001C258.368 57.385 269.53 58.9847 280.143 63.528C296.559 70.5586 308.377 82.2228 312.362 100.531C318.917 130.645 305.86 157.533 274.545 167.753C266.231 170.466 257.673 171.735 248.975 171.765C229.537 171.83 210.098 171.755 190.665 171.84C188.775 171.85 188.464 171.279 188.469 169.483C188.522 133.964 188.508 98.4453 188.508 62.9263C188.508 61.9233 188.483 60.9204 188.469 59.9225C188.998 59.065 189.538 58.2175 190.082 57.375ZM228.463 114.462C228.463 122.897 228.501 131.337 228.424 139.771C228.409 141.316 228.798 141.752 230.304 141.727C236.048 141.627 241.802 141.817 247.546 141.627C261.998 141.155 271.751 132.651 273.335 118.594C275.391 100.366 265.39 89.9404 251.186 87.9496C244.339 86.9867 237.443 87.754 230.576 87.4631C228.885 87.3929 228.404 87.8794 228.424 89.6546C228.516 97.9238 228.463 106.193 228.463 114.462Z" fill="white"/>
<path d="M122.851 83.3607C117.798 89.1576 112.7 94.9145 107.695 100.762C104.235 104.808 100.906 108.971 97.5237 113.088C97.0038 113.72 96.5567 114.422 95.7306 114.692C79.5679 93.8313 65.4704 71.4407 50.3477 49.8274C50.9745 49.0301 51.6646 49.3611 52.2477 49.3611C67.628 49.341 83.0084 49.3611 98.3887 49.3159C99.798 49.3109 100.75 49.6269 101.596 50.9156C108.331 61.1757 115.421 71.19 121.641 81.8061C121.977 82.3728 122.448 82.8492 122.851 83.3607Z" fill="white"/>
<path d="M119.93 147.291C121.684 144.954 124.216 143.49 126.174 141.374C127.685 139.739 128.657 137.903 128.852 135.657C128.905 135.055 128.978 134.518 129.391 134.052C135.023 127.613 140.651 121.169 146.283 114.73C159.637 133.255 172.437 152.185 185.479 170.96C184.862 171.652 184.182 171.346 183.594 171.346C168.131 171.366 152.663 171.336 137.2 171.406C135.611 171.412 134.761 170.89 133.92 169.531C129.313 162.079 124.605 154.698 119.93 147.291Z" fill="white"/>
<path d="M202.437 29.2851C198.268 36.5413 193.092 43.0955 188.743 50.2264C187.237 52.6986 185.993 55.3614 184.059 57.5128C180.798 61.1434 178.11 65.2003 175.452 69.2973C174.014 71.5138 172.687 73.8105 170.914 75.7763C170.603 76.4031 170.282 77.0199 169.65 77.3709C169.533 77.5163 169.422 77.6618 169.305 77.8122C169.013 77.5565 169.174 77.3158 169.32 77.07C169.674 76.4231 170.034 75.7813 170.394 75.1344C170.695 74.5477 170.962 73.9459 171.302 73.3842C178.417 61.5746 185.526 49.7701 192.665 37.9755C193.491 36.6115 194.127 35.1874 194.356 33.6027C194.681 31.3411 195.537 29.3051 196.572 27.3043C198.53 23.5031 200.829 19.9226 203.414 16.4023C201.747 15.9259 200.654 16.4374 199.687 17.4805C198.005 19.2908 196.115 20.8604 194.161 22.3447C191.377 24.4609 191.26 24.5362 189.997 21.5424C189.982 21.5023 189.783 20.9807 189.472 21.2014C188.884 21.7029 187.378 23.5733 183.485 29.7013C183.48 29.7063 183.48 29.7113 183.475 29.7163C182.192 31.5166 180.958 33.347 179.836 35.2726C177.906 38.5773 175.856 41.8017 173.645 44.9158L173.63 44.951L172.517 46.5055C171.992 47.1775 171.346 47.8896 170.865 48.0551C170.087 47.5235 168.819 45.6831 173.12 39.8259C173.125 39.8209 173.129 39.8159 173.129 39.8109C173.387 39.3796 173.679 38.9534 174.009 38.5372C176.672 35.1874 178.222 31.2308 179.296 27.1137C180.093 24.0598 181.366 21.3769 183.393 19.01C184.685 17.5005 185.818 15.7404 186.002 13.7345C186.289 10.6655 187.65 8.21835 189.341 5.83136C190.293 4.49244 191.319 3.16355 192.004 0.992188C191.217 1.72935 190.818 2.02521 190.517 2.40131C185.074 9.33161 178.849 15.5498 173.688 22.766C169.859 28.1217 165.544 33.1564 161.078 37.9705C155.106 44.4144 149.041 50.6376 144.036 58.0593C137.903 67.156 129.792 74.6429 122.479 82.7667C117.425 88.5637 112.327 94.3206 107.322 100.168C103.862 104.215 100.533 108.377 97.1511 112.494C96.6311 113.126 96.1841 113.828 95.358 114.099C95.2851 115.021 94.5999 115.553 94.0799 116.165C75.5555 137.968 57.6093 160.254 41.1162 183.753C40.8343 184.154 39.357 186.109 39.3181 186.129C39.3133 186.129 35.3868 191.992 34.1039 194.995C36.6551 193.085 38.0109 190.036 40.4698 188.01C40.5136 187.975 40.5476 187.93 40.5816 187.89H40.5913C40.5913 187.89 41.7625 186.506 42.8704 185.076C43.1766 184.786 43.4584 184.46 43.7209 184.089C49.4065 176.08 55.4517 168.377 61.8857 160.996C62.4785 160.319 63.018 159.557 63.985 159.391C64.1794 159.331 64.3738 159.266 64.5633 159.206C64.5293 159.406 64.5001 159.607 64.4661 159.812C60.9964 164.837 57.2643 169.701 53.4739 174.42C44.3866 185.743 36.0234 197.623 27.2714 209.197C26.2558 210.541 24.1128 213.44 23.379 214.392C20.4001 218.264 17.4309 222.14 14.4569 226.016C14.5978 226.157 14.7388 226.297 14.8797 226.438C16.0849 225.279 17.4552 224.261 18.466 222.947C24.0156 215.741 30.6488 209.568 36.5094 202.658C39.8624 198.706 43.4973 195 47.0545 191.239C47.9632 190.282 48.8719 189.158 50.7428 189.028C50.0965 190.818 49.2072 192.057 48.2791 193.27C46.3304 195.828 44.0659 198.115 42.3213 200.843C34.1185 213.69 24.1225 225.089 14.8846 237.099C10.234 243.152 5.12181 248.828 0.996094 255.307C2.91074 255.427 3.84863 253.888 4.91772 252.679C6.22492 251.2 7.2357 249.43 8.62066 248.046C19.4865 237.159 29.1521 225.109 39.7555 213.961C45.5383 207.878 51.1413 201.615 57.0845 195.693C57.6579 195.121 58.1098 194.233 59.7669 194.183C54.1882 201.655 47.8126 207.933 42.4088 214.969V214.964C42.4088 214.964 41.4806 216.178 40.5622 217.371L38.5552 219.893C38.5261 219.929 38.492 219.964 38.4677 219.989H38.4629C38.4289 220.029 38.4046 220.059 38.4094 220.069C38.4872 220.169 38.5503 220.219 38.6135 220.239C38.6184 220.239 38.6281 220.239 38.633 220.239C38.6767 220.249 38.7204 220.239 38.7593 220.219C38.9294 220.159 39.2015 219.999 39.4153 219.823L40.6302 218.916C41.0676 218.645 41.5195 218.384 41.7139 218.269C41.7236 218.264 41.7382 218.254 41.7479 218.249C41.7868 218.229 41.8111 218.213 41.8111 218.213L41.8159 218.208C45.4897 216.072 48.2888 212.868 51.2871 209.784C55.8745 205.07 60.2626 200.176 64.8306 195.457C70.6036 189.494 76.265 183.442 81.6493 177.108C82.8253 175.729 84.045 174.536 86.0423 174.014C85.7896 176.01 84.6719 177.073 83.4716 178.036C82.0672 179.169 80.7649 180.388 79.55 181.752C68.7765 193.827 57.9981 205.897 47.6425 218.098C47.4287 218.354 48.0555 218.244 48.2451 218.203C48.8136 218.058 49.4065 217.662 49.9264 217.06C52.4291 214.187 55.3302 211.74 58.1001 209.142C60.3598 207.071 63.1346 204.543 63.3241 204.443C63.6497 204.278 72.4746 193.998 73.6894 193.496C74.7099 193.075 84.3317 183.748 87.3932 180.764L87.6994 180.513C88.2922 179.871 88.8948 179.264 89.546 178.718C96.6749 172.745 102.827 165.755 109.237 159.03C112.915 155.174 116.623 151.348 120.316 147.506C122.071 145.17 124.602 143.705 126.561 141.589C128.072 139.954 129.044 138.119 129.238 135.872C129.292 135.271 129.365 134.734 129.778 134.268C135.41 127.829 141.037 121.385 146.669 114.946C147.17 114.299 147.617 113.597 148.176 113.01C154.182 106.712 159.703 99.9671 164.897 92.9616C170.486 85.4195 175.739 77.6166 181.182 69.9642C183.611 66.5492 185.453 62.6929 188.451 59.7092C188.991 58.8617 189.535 58.0192 190.075 57.1718C191.858 52.6987 193.991 48.4713 196.824 44.5498C198.977 41.571 200.518 38.1059 202.214 34.7912C203.176 32.9107 203.744 30.8797 203.025 28.5228C202.69 28.6783 202.598 29.0042 202.437 29.2851Z" fill="#00C041"/>
<path d="M153.628 215.608V217H145.5V205.8H153.404V207.192H147.1V210.632H152.716V211.992H147.1V215.608H153.628ZM161.216 217L158.768 213.752L156.288 217H154.576L157.92 212.664L154.736 208.52H156.448L158.784 211.576L161.104 208.52H162.784L159.584 212.664L162.96 217H161.216ZM172.018 212.808C172.018 212.925 172.008 213.08 171.986 213.272H165.106C165.202 214.019 165.528 214.621 166.082 215.08C166.648 215.528 167.346 215.752 168.178 215.752C169.192 215.752 170.008 215.411 170.626 214.728L171.474 215.72C171.09 216.168 170.61 216.509 170.034 216.744C169.469 216.979 168.834 217.096 168.13 217.096C167.234 217.096 166.44 216.915 165.746 216.552C165.053 216.179 164.514 215.661 164.13 215C163.757 214.339 163.57 213.592 163.57 212.76C163.57 211.939 163.752 211.197 164.114 210.536C164.488 209.875 164.994 209.363 165.634 209C166.285 208.627 167.016 208.44 167.826 208.44C168.637 208.44 169.357 208.627 169.986 209C170.626 209.363 171.122 209.875 171.474 210.536C171.837 211.197 172.018 211.955 172.018 212.808ZM167.826 209.736C167.09 209.736 166.472 209.96 165.97 210.408C165.48 210.856 165.192 211.443 165.106 212.168H170.546C170.461 211.453 170.168 210.872 169.666 210.424C169.176 209.965 168.562 209.736 167.826 209.736ZM177.847 217.096C176.983 217.096 176.21 216.909 175.527 216.536C174.855 216.163 174.327 215.651 173.943 215C173.559 214.339 173.367 213.592 173.367 212.76C173.367 211.928 173.559 211.187 173.943 210.536C174.327 209.875 174.855 209.363 175.527 209C176.21 208.627 176.983 208.44 177.847 208.44C178.615 208.44 179.298 208.595 179.895 208.904C180.503 209.213 180.973 209.661 181.303 210.248L180.135 211C179.869 210.595 179.538 210.291 179.143 210.088C178.749 209.885 178.311 209.784 177.831 209.784C177.277 209.784 176.775 209.907 176.327 210.152C175.89 210.397 175.543 210.749 175.287 211.208C175.042 211.656 174.919 212.173 174.919 212.76C174.919 213.357 175.042 213.885 175.287 214.344C175.543 214.792 175.89 215.139 176.327 215.384C176.775 215.629 177.277 215.752 177.831 215.752C178.311 215.752 178.749 215.651 179.143 215.448C179.538 215.245 179.869 214.941 180.135 214.536L181.303 215.272C180.973 215.859 180.503 216.312 179.895 216.632C179.298 216.941 178.615 217.096 177.847 217.096ZM191.196 208.52V217H189.74V215.72C189.431 216.157 189.02 216.499 188.508 216.744C188.007 216.979 187.457 217.096 186.86 217.096C185.729 217.096 184.839 216.787 184.188 216.168C183.537 215.539 183.212 214.616 183.212 213.4V208.52H184.748V213.224C184.748 214.045 184.945 214.669 185.34 215.096C185.735 215.512 186.3 215.72 187.036 215.72C187.847 215.72 188.487 215.475 188.956 214.984C189.425 214.493 189.66 213.8 189.66 212.904V208.52H191.196ZM198.888 216.504C198.664 216.696 198.387 216.845 198.056 216.952C197.725 217.048 197.384 217.096 197.032 217.096C196.179 217.096 195.517 216.867 195.048 216.408C194.579 215.949 194.344 215.293 194.344 214.44V209.784H192.904V208.52H194.344V206.664H195.88V208.52H198.312V209.784H195.88V214.376C195.88 214.835 195.992 215.187 196.216 215.432C196.451 215.677 196.781 215.8 197.208 215.8C197.677 215.8 198.077 215.667 198.408 215.4L198.888 216.504ZM208.128 212.808C208.128 212.925 208.117 213.08 208.096 213.272H201.216C201.312 214.019 201.637 214.621 202.192 215.08C202.757 215.528 203.456 215.752 204.288 215.752C205.301 215.752 206.117 215.411 206.736 214.728L207.584 215.72C207.2 216.168 206.72 216.509 206.144 216.744C205.578 216.979 204.944 217.096 204.24 217.096C203.344 217.096 202.549 216.915 201.856 216.552C201.162 216.179 200.624 215.661 200.24 215C199.866 214.339 199.68 213.592 199.68 212.76C199.68 211.939 199.861 211.197 200.224 210.536C200.597 209.875 201.104 209.363 201.744 209C202.394 208.627 203.125 208.44 203.936 208.44C204.746 208.44 205.466 208.627 206.096 209C206.736 209.363 207.232 209.875 207.584 210.536C207.946 211.197 208.128 211.955 208.128 212.808ZM203.936 209.736C203.2 209.736 202.581 209.96 202.08 210.408C201.589 210.856 201.301 211.443 201.216 212.168H206.656C206.57 211.453 206.277 210.872 205.776 210.424C205.285 209.965 204.672 209.736 203.936 209.736ZM231.686 208.52L228.518 217H227.046L224.598 210.568L222.118 217H220.646L217.494 208.52H218.95L221.414 215.272L223.974 208.52H225.27L227.782 215.304L230.31 208.52H231.686ZM233.245 208.52H234.781V217H233.245V208.52ZM234.013 206.888C233.714 206.888 233.464 206.792 233.261 206.6C233.069 206.408 232.973 206.173 232.973 205.896C232.973 205.619 233.069 205.384 233.261 205.192C233.464 204.989 233.714 204.888 234.013 204.888C234.312 204.888 234.557 204.984 234.749 205.176C234.952 205.357 235.053 205.587 235.053 205.864C235.053 206.152 234.952 206.397 234.749 206.6C234.557 206.792 234.312 206.888 234.013 206.888ZM242.482 216.504C242.258 216.696 241.98 216.845 241.65 216.952C241.319 217.048 240.978 217.096 240.626 217.096C239.772 217.096 239.111 216.867 238.642 216.408C238.172 215.949 237.938 215.293 237.938 214.44V209.784H236.498V208.52H237.938V206.664H239.474V208.52H241.906V209.784H239.474V214.376C239.474 214.835 239.586 215.187 239.81 215.432C240.044 215.677 240.375 215.8 240.802 215.8C241.271 215.8 241.671 215.667 242.002 215.4L242.482 216.504ZM248.867 208.44C249.944 208.44 250.797 208.755 251.427 209.384C252.067 210.003 252.387 210.915 252.387 212.12V217H250.851V212.296C250.851 211.475 250.653 210.856 250.259 210.44C249.864 210.024 249.299 209.816 248.563 209.816C247.731 209.816 247.075 210.061 246.595 210.552C246.115 211.032 245.875 211.725 245.875 212.632V217H244.339V205.128H245.875V209.72C246.195 209.315 246.611 209 247.123 208.776C247.645 208.552 248.227 208.44 248.867 208.44ZM266.911 208.44C268.085 208.44 268.981 208.728 269.599 209.304C270.229 209.88 270.543 210.739 270.543 211.88V217H269.087V215.88C268.831 216.275 268.463 216.579 267.983 216.792C267.514 216.995 266.954 217.096 266.303 217.096C265.354 217.096 264.591 216.867 264.015 216.408C263.45 215.949 263.167 215.347 263.167 214.6C263.167 213.853 263.439 213.256 263.983 212.808C264.527 212.349 265.391 212.12 266.575 212.12H269.007V211.816C269.007 211.155 268.815 210.648 268.431 210.296C268.047 209.944 267.482 209.768 266.735 209.768C266.234 209.768 265.743 209.853 265.263 210.024C264.783 210.184 264.378 210.403 264.047 210.68L263.407 209.528C263.845 209.176 264.367 208.909 264.975 208.728C265.583 208.536 266.229 208.44 266.911 208.44ZM266.559 215.912C267.146 215.912 267.653 215.784 268.079 215.528C268.506 215.261 268.815 214.888 269.007 214.408V213.224H266.639C265.338 213.224 264.687 213.661 264.687 214.536C264.687 214.963 264.853 215.299 265.183 215.544C265.514 215.789 265.973 215.912 266.559 215.912ZM284.411 217.096C283.718 217.096 283.051 217.005 282.411 216.824C281.771 216.632 281.27 216.392 280.907 216.104L281.547 214.888C281.921 215.155 282.374 215.368 282.907 215.528C283.441 215.688 283.979 215.768 284.523 215.768C285.867 215.768 286.539 215.384 286.539 214.616C286.539 214.36 286.449 214.157 286.267 214.008C286.086 213.859 285.857 213.752 285.579 213.688C285.313 213.613 284.929 213.533 284.427 213.448C283.745 213.341 283.185 213.219 282.747 213.08C282.321 212.941 281.953 212.707 281.643 212.376C281.334 212.045 281.179 211.581 281.179 210.984C281.179 210.216 281.499 209.603 282.139 209.144C282.779 208.675 283.638 208.44 284.715 208.44C285.281 208.44 285.846 208.509 286.411 208.648C286.977 208.787 287.441 208.973 287.803 209.208L287.147 210.424C286.454 209.976 285.638 209.752 284.699 209.752C284.049 209.752 283.553 209.859 283.211 210.072C282.87 210.285 282.699 210.568 282.699 210.92C282.699 211.197 282.795 211.416 282.987 211.576C283.179 211.736 283.414 211.853 283.691 211.928C283.979 212.003 284.379 212.088 284.891 212.184C285.574 212.301 286.123 212.429 286.539 212.568C286.966 212.696 287.329 212.92 287.627 213.24C287.926 213.56 288.075 214.008 288.075 214.584C288.075 215.352 287.745 215.965 287.083 216.424C286.433 216.872 285.542 217.096 284.411 217.096ZM300.603 208.44C301.67 208.44 302.512 208.749 303.131 209.368C303.76 209.987 304.075 210.904 304.075 212.12V217H302.539V212.296C302.539 211.475 302.347 210.856 301.963 210.44C301.59 210.024 301.051 209.816 300.347 209.816C299.568 209.816 298.95 210.061 298.491 210.552C298.032 211.032 297.803 211.725 297.803 212.632V217H296.267V212.296C296.267 211.475 296.075 210.856 295.691 210.44C295.318 210.024 294.779 209.816 294.075 209.816C293.296 209.816 292.678 210.061 292.219 210.552C291.76 211.032 291.531 211.725 291.531 212.632V217H289.995V208.52H291.467V209.784C291.776 209.347 292.182 209.016 292.683 208.792C293.184 208.557 293.755 208.44 294.395 208.44C295.056 208.44 295.643 208.573 296.155 208.84C296.667 209.107 297.062 209.496 297.339 210.008C297.659 209.517 298.102 209.133 298.667 208.856C299.243 208.579 299.888 208.44 300.603 208.44ZM306.901 208.52H308.437V217H306.901V208.52ZM307.669 206.888C307.371 206.888 307.12 206.792 306.917 206.6C306.725 206.408 306.629 206.173 306.629 205.896C306.629 205.619 306.725 205.384 306.917 205.192C307.12 204.989 307.371 204.888 307.669 204.888C307.968 204.888 308.213 204.984 308.405 205.176C308.608 205.357 308.709 205.587 308.709 205.864C308.709 206.152 308.608 206.397 308.405 206.6C308.213 206.792 307.968 206.888 307.669 206.888ZM311.37 205.128H312.906V217H311.37V205.128ZM323.503 212.808C323.503 212.925 323.492 213.08 323.471 213.272H316.591C316.687 214.019 317.012 214.621 317.567 215.08C318.132 215.528 318.831 215.752 319.663 215.752C320.676 215.752 321.492 215.411 322.111 214.728L322.959 215.72C322.575 216.168 322.095 216.509 321.519 216.744C320.953 216.979 320.319 217.096 319.615 217.096C318.719 217.096 317.924 216.915 317.231 216.552C316.537 216.179 315.999 215.661 315.615 215C315.241 214.339 315.055 213.592 315.055 212.76C315.055 211.939 315.236 211.197 315.599 210.536C315.972 209.875 316.479 209.363 317.119 209C317.769 208.627 318.5 208.44 319.311 208.44C320.121 208.44 320.841 208.627 321.471 209C322.111 209.363 322.607 209.875 322.959 210.536C323.321 211.197 323.503 211.955 323.503 212.808ZM319.311 209.736C318.575 209.736 317.956 209.96 317.455 210.408C316.964 210.856 316.676 211.443 316.591 212.168H322.031C321.945 211.453 321.652 210.872 321.151 210.424C320.66 209.965 320.047 209.736 319.311 209.736Z" fill="white"/>
</svg>
