<svg width="74" height="60" viewBox="0 0 74 60" fill="none" xmlns="http://www.w3.org/2000/svg">
<path d="M44.0989 13.1484C48.519 13.1508 52.938 13.1601 57.358 13.1543C60.0248 13.1508 62.6281 13.5239 65.1033 14.5835C68.9318 16.2232 71.6881 18.9435 72.6175 23.2135C74.1464 30.2366 71.101 36.5077 63.7977 38.8913C61.8586 39.524 59.8627 39.8199 57.834 39.8269C53.3006 39.8421 48.7672 39.8246 44.2349 39.8444C43.7941 39.8468 43.7215 39.7135 43.7227 39.2948C43.7351 31.0109 43.7317 22.727 43.7317 14.4431C43.7317 14.2092 43.7261 13.9753 43.7227 13.7426C43.8462 13.5426 43.972 13.3449 44.0989 13.1484ZM53.0502 26.4625C53.0502 28.4297 53.0592 30.398 53.0411 32.3652C53.0377 32.7254 53.1284 32.8272 53.4797 32.8213C54.8193 32.7979 56.1612 32.8424 57.5008 32.798C60.8714 32.688 63.1461 30.7045 63.5155 27.4262C63.9949 23.1749 61.6625 20.7435 58.3497 20.2791C56.7528 20.0546 55.1446 20.2335 53.5432 20.1657C53.1488 20.1493 53.0366 20.2628 53.0411 20.6768C53.0626 22.6054 53.0502 24.5339 53.0502 26.4625Z" fill="white"/>
<path d="M28.4213 19.211C27.2426 20.563 26.0537 21.9056 24.8864 23.2693C24.0794 24.2132 23.3031 25.1839 22.5143 26.1441C22.393 26.2914 22.2888 26.4552 22.0961 26.5183C18.3266 21.653 15.0387 16.431 11.5117 11.3903C11.6579 11.2043 11.8189 11.2815 11.9549 11.2815C15.5419 11.2768 19.129 11.2815 22.716 11.271C23.0447 11.2698 23.2668 11.3435 23.464 11.6441C25.0349 14.037 26.6884 16.3725 28.1391 18.8485C28.2173 18.9806 28.3272 19.0917 28.4213 19.211Z" fill="white"/>
<path d="M27.7383 34.1212C28.1474 33.5762 28.7379 33.2347 29.1946 32.7411C29.5471 32.3599 29.7738 31.9318 29.8191 31.4078C29.8316 31.2675 29.8486 31.1424 29.9449 31.0336C31.2585 29.5319 32.5709 28.029 33.8844 26.5273C36.9989 30.8476 39.9841 35.2627 43.026 39.6414C42.8821 39.8028 42.7234 39.7315 42.5863 39.7315C38.98 39.7362 35.3725 39.7292 31.7662 39.7455C31.3956 39.7467 31.1973 39.6251 31.0012 39.3081C29.9268 37.5702 28.8286 35.8486 27.7383 34.1212Z" fill="white"/>
<path d="M46.9808 6.59856C46.0084 8.29089 44.8014 9.81949 43.787 11.4826C43.4357 12.0592 43.1455 12.6802 42.6945 13.1819C41.934 14.0287 41.3072 14.9748 40.6873 15.9304C40.3518 16.4473 40.0424 16.9829 39.6288 17.4414C39.5562 17.5876 39.4814 17.7315 39.3341 17.8133C39.3069 17.8472 39.2808 17.8812 39.2536 17.9162C39.1856 17.8566 39.223 17.8005 39.257 17.7431C39.3397 17.5923 39.4236 17.4426 39.5075 17.2917C39.5778 17.1549 39.6401 17.0145 39.7194 16.8835C41.3786 14.1293 43.0367 11.3762 44.7016 8.62539C44.8943 8.30727 45.0428 7.97512 45.096 7.60554C45.172 7.07808 45.3714 6.60324 45.6128 6.1366C46.0696 5.25008 46.6057 4.41503 47.2086 3.59401C46.8199 3.4829 46.5649 3.60219 46.3393 3.84546C45.9472 4.26766 45.5063 4.63373 45.0507 4.97992C44.4013 5.47347 44.3741 5.49101 44.0794 4.79279C44.076 4.78343 44.0296 4.6618 43.957 4.71326C43.8199 4.83022 43.4685 5.26646 42.5607 6.69564C42.5596 6.69681 42.5596 6.69798 42.5585 6.69915C42.2593 7.11901 41.9714 7.5459 41.7096 7.995C41.2596 8.76573 40.7814 9.51775 40.2657 10.244L40.2623 10.2522L40.0028 10.6148C39.8804 10.7715 39.7296 10.9376 39.6174 10.9762C39.4361 10.8522 39.1403 10.423 40.1433 9.05695C40.1444 9.05578 40.1456 9.05461 40.1456 9.05344C40.2056 8.95286 40.2736 8.85345 40.3507 8.75637C40.9718 7.97512 41.3333 7.05235 41.5838 6.09215C41.7697 5.3799 42.0666 4.75419 42.5392 4.20217C42.8407 3.85014 43.1047 3.43963 43.1478 2.97181C43.2147 2.25605 43.532 1.68531 43.9264 1.12861C44.1486 0.816341 44.3877 0.506413 44.5475 0C44.3639 0.171923 44.271 0.240926 44.2007 0.328642C42.9313 1.94495 41.4795 3.39519 40.2759 5.07816C39.3828 6.32723 38.3764 7.50145 37.3348 8.62422C35.942 10.1271 34.5275 11.5785 33.3602 13.3094C31.9299 15.431 30.0383 17.1771 28.3326 19.0718C27.154 20.4237 25.9651 21.7664 24.7977 23.1301C23.9908 24.0739 23.2144 25.0446 22.4256 26.0048C22.3043 26.1522 22.2001 26.3159 22.0074 26.3791C21.9904 26.5943 21.8306 26.7182 21.7093 26.8609C17.389 31.9461 13.2035 37.1435 9.35695 42.624C9.29121 42.7176 8.94667 43.1737 8.93761 43.1784C8.93647 43.1784 8.02073 44.5456 7.72152 45.2461C8.31653 44.8006 8.63273 44.0895 9.20621 43.617C9.21641 43.6088 9.22435 43.5983 9.23228 43.5889H9.23454C9.23454 43.5889 9.50768 43.2661 9.76609 42.9328C9.83749 42.865 9.90322 42.7889 9.96442 42.7024C11.2904 40.8346 12.7003 39.0382 14.2009 37.3166C14.3392 37.1587 14.465 36.981 14.6905 36.9424C14.7358 36.9283 14.7812 36.9131 14.8254 36.8991C14.8174 36.9459 14.8106 36.9927 14.8027 37.0406C13.9935 38.2125 13.1231 39.347 12.2391 40.4475C10.1197 43.0883 8.1692 45.859 6.12803 48.5583C5.89116 48.8717 5.39135 49.5477 5.22021 49.7699C4.52547 50.6728 3.83299 51.5769 3.13938 52.4809C3.17225 52.5137 3.20512 52.5464 3.23798 52.5792C3.51906 52.309 3.83866 52.0716 4.0744 51.7652C5.36868 50.0845 6.91571 48.6448 8.28253 47.0332C9.06454 46.1116 9.91229 45.2473 10.7419 44.3702C10.9538 44.1468 11.1658 43.8848 11.6021 43.8544C11.4514 44.2719 11.244 44.5608 11.0275 44.8438C10.573 45.4403 10.0449 45.9736 9.63802 46.6098C7.72492 49.6062 5.39362 52.2646 3.23912 55.0656C2.1545 56.4773 0.962215 57.8012 0 59.3122C0.44654 59.3403 0.665278 58.9813 0.914615 58.6994C1.21949 58.3544 1.45522 57.9415 1.77823 57.6187C4.3124 55.0797 6.56664 52.2692 9.03961 49.6694C10.3883 48.2507 11.6951 46.7899 13.0811 45.4087C13.2149 45.2754 13.3203 45.0684 13.7067 45.0567C12.4057 46.7993 10.9187 48.2636 9.65842 49.9044V49.9033C9.65842 49.9033 9.44195 50.1863 9.22774 50.4646L8.75967 51.0529C8.75287 51.0611 8.74494 51.0693 8.73927 51.0752H8.73814C8.7302 51.0845 8.72454 51.0915 8.72567 51.0939C8.7438 51.1173 8.75854 51.1289 8.77327 51.1336C8.7744 51.1336 8.77667 51.1336 8.7778 51.1336C8.788 51.136 8.7982 51.1336 8.80727 51.1289C8.84694 51.1149 8.91041 51.0775 8.96027 51.0365L9.24361 50.8249C9.34561 50.7617 9.45101 50.7009 9.49635 50.674C9.49861 50.6728 9.50202 50.6705 9.50428 50.6693C9.51335 50.6646 9.51902 50.6611 9.51902 50.6611L9.52015 50.66C10.377 50.1617 11.0298 49.4144 11.7291 48.6951C12.7989 47.5958 13.8223 46.4543 14.8877 45.3537C16.2341 43.9632 17.5545 42.5515 18.8102 41.0744C19.0845 40.7528 19.369 40.4744 19.8348 40.3528C19.7758 40.8182 19.5152 41.0662 19.2352 41.2907C18.9077 41.5551 18.604 41.8393 18.3206 42.1574C15.808 44.9736 13.2942 47.7887 10.879 50.6342C10.8292 50.6939 10.9754 50.6681 11.0196 50.6588C11.1522 50.6249 11.2904 50.5325 11.4117 50.3921C11.9954 49.722 12.672 49.1512 13.318 48.5454C13.845 48.0624 14.4922 47.473 14.5364 47.4496C14.6123 47.411 16.6705 45.0134 16.9538 44.8964C17.1918 44.7982 19.4358 42.6229 20.1498 41.927L20.2212 41.8685C20.3595 41.7188 20.5001 41.5773 20.6519 41.4498C22.3146 40.0569 23.7494 38.4265 25.2443 36.8582C26.1022 35.9588 26.967 35.0664 27.8283 34.1706C28.2374 33.6256 28.8279 33.284 29.2847 32.7905C29.6371 32.4092 29.8638 31.9812 29.9091 31.4572C29.9216 31.3169 29.9386 31.1917 30.0349 31.083C31.3485 29.5813 32.6609 28.0784 33.9745 26.5767C34.0912 26.4258 34.1955 26.2621 34.3258 26.1253C35.7266 24.6563 37.0141 23.0833 38.2257 21.4494C39.529 19.6904 40.7542 17.8706 42.0235 16.0859C42.5902 15.2894 43.0197 14.3901 43.719 13.6942C43.8448 13.4965 43.9718 13.3001 44.0976 13.1024C44.5135 12.0592 45.011 11.0732 45.6718 10.1587C46.1739 9.46395 46.5331 8.65579 46.9287 7.88272C47.1531 7.44415 47.2857 6.97048 47.1179 6.4208C47.0397 6.45705 47.0182 6.53307 46.9808 6.59856Z" fill="#00C041"/>
</svg>
