<svg width="24" height="574" viewBox="0 0 24 574" fill="none" xmlns="http://www.w3.org/2000/svg">
<path d="M20.8416 431.504C34.4595 368.361 -1.51098 354.188 17.0024 232C22.2596 197.302 1.64539 123.004 16.3959 79.5C31.1464 35.9961 19.6146 20.3333 17.0024 0H0V574H17.0024C6.93698 500.618 7.22373 494.646 20.8416 431.504Z" fill="#000"/>
<path d="M20.8416 431.504C34.4595 368.361 -1.51098 354.188 17.0024 232C22.2596 197.302 1.64539 123.004 16.3959 79.5C31.1464 35.9961 19.6146 20.3333 17.0024 0H0V574H17.0024C6.93698 500.618 7.22373 494.646 20.8416 431.504Z"/>
</svg>
